<svg width="200" height="50" viewBox="0 0 200 50" fill="none" xmlns="http://www.w3.org/2000/svg">
<path d="M90.4325 8.01729C90.4696 8.20505 91.5108 13.9692 92.7379 20.8412C93.965 27.7131 95.0248 33.5524 95.0806 33.834L95.1921 34.3598H97.1629H99.1523L101.383 27.1311C102.611 23.1694 103.67 20.015 103.726 20.1465C103.8 20.2779 104.414 22.193 105.102 24.4086C105.771 26.6241 106.757 29.7785 107.259 31.412L108.188 34.3785L110.178 34.3222L112.167 34.2659L114.528 21.1228C115.83 13.8941 116.89 7.92341 116.908 7.82953C116.908 7.75443 115.96 7.6981 114.807 7.6981H112.725L111.256 16.1848C110.457 20.86 109.75 24.9343 109.676 25.2159C109.583 25.6478 109.137 24.4649 107.37 18.9824L105.176 12.2043H103.652H102.127L99.989 18.7946C98.8177 22.4183 97.8137 25.4037 97.7579 25.4413C97.7021 25.4788 97.0142 21.6861 96.2147 17.0297C95.4152 12.3545 94.7087 8.35526 94.653 8.11117C94.56 7.71688 94.4856 7.6981 92.459 7.6981C90.544 7.6981 90.3581 7.73566 90.4325 8.01729Z" fill="#1D56A7"/>
<path d="M119.883 9.65095V11.6224L123.936 16.26C126.149 18.7948 127.989 20.9352 128.008 21.0103C128.045 21.0666 126.223 23.2259 123.973 25.8169L119.883 30.4921V32.426V34.3599H131.596H143.31V32.4823V30.6048L134.218 30.5672L125.145 30.5109L129.198 25.8357C131.448 23.2634 133.27 21.123 133.27 21.0479C133.27 20.9915 131.466 18.8699 129.254 16.3351L125.238 11.7351L134.274 11.6787L143.31 11.6412V9.66972V7.69826H131.596H119.883V9.65095Z" fill="#1D56A7"/>
<path d="M154.372 0.225325C154.335 0.356756 154.26 1.68984 154.205 3.1919C154.13 4.69397 154.037 6.30869 153.963 6.79686L153.851 7.6981H149.984H146.098V9.66956V11.641H149.891H153.703L153.758 19.1889C153.833 25.6102 153.889 26.9245 154.149 27.8821C155.487 32.5948 158.648 34.923 163.761 34.923C167.201 34.923 169.618 33.9279 171.998 31.5434C172.779 30.736 173.429 29.9662 173.411 29.8348C173.411 29.5719 170.789 27.4127 170.51 27.4127C170.417 27.4127 169.729 27.9197 168.967 28.5393C167.015 30.1164 165.899 30.6421 164.245 30.7548C161.79 30.905 159.82 29.816 158.909 27.7507C158.462 26.7556 158.462 26.6992 158.407 19.1889L158.351 11.641H164.579H170.826V9.66956V7.6981H164.505H158.183V3.84906V1.50353e-05H156.324C154.985 1.50353e-05 154.428 0.0751183 154.372 0.225325Z" fill="#232222"/>
<path d="M51.927 7.58543C50.2537 7.92339 49.1753 8.31768 48.1156 9.01239C47.1302 9.65077 45.587 11.2279 44.8805 12.2982L44.3971 13.0492V10.4581V7.88584H38.1686H31.9401V9.76342V11.641H36.0304H40.1208V21.1228V30.6046H36.0304H31.9401V32.4822V34.3597H43.7463H55.5526V32.4822V30.6046H50.0306H44.5272L44.6388 25.8543C44.7689 20.3342 45.0478 18.3815 45.9774 16.3913C46.8327 14.57 47.8553 13.481 49.5658 12.6361C50.7929 12.0165 51.1276 11.9226 52.7265 11.8663C53.9908 11.81 54.939 11.8851 56.0918 12.1292C56.9656 12.3169 57.7651 12.4859 57.858 12.4859C58.0068 12.4859 58.862 8.99361 58.8992 8.31768C58.8992 8.20503 58.3229 7.97972 57.6163 7.81074C55.7385 7.37889 53.4516 7.28501 51.927 7.58543Z" fill="#232222"/>
<path d="M71.5051 7.51035C68.772 7.99853 66.764 9.1063 64.663 11.2467C63.3987 12.5235 62.9153 13.1994 62.3018 14.4574C61.0933 16.9546 60.8516 18.0436 60.8516 21.3106C60.8702 23.9955 60.8887 24.2021 61.4651 25.9107C62.748 29.647 64.849 32.1818 67.9167 33.7026C69.9619 34.7353 71.2634 34.9794 73.8663 34.8667C77.3431 34.7353 79.5742 33.7965 81.9169 31.4871L83.0696 30.3417V32.3508V34.3598H85.1148H87.16V21.1228V7.88587H84.9289H82.6978V9.68835V11.5096L81.8611 10.721C79.6486 8.67446 76.9713 7.52913 74.0523 7.41648C73.1412 7.37892 71.9885 7.41648 71.5051 7.51035ZM76.618 12.2231C78.0868 12.7113 79.2768 13.4811 80.3179 14.6076C82.0099 16.4289 82.6978 18.2501 82.6978 20.8224C82.6792 26.887 78.7934 30.8487 73.1226 30.5671C68.4931 30.323 65.0721 25.8543 65.4625 20.5971C65.8715 15.3399 69.2368 11.8663 74.0151 11.8476C75.0005 11.8288 75.8185 11.9602 76.618 12.2231Z" fill="#232222"/>
<path d="M9.16426 7.81076C5.98494 8.59934 2.95436 11.059 1.50414 14.0819C1.07651 14.9643 0.593108 16.1848 0.425775 16.8044C-0.0204455 18.4754 -0.150593 22.6436 0.202665 24.3522C0.983551 28.0323 2.97295 31.0928 5.79902 33.0079C7.76982 34.341 9.08989 34.7541 11.6743 34.8667C15.2812 35.0169 17.5681 34.2096 19.7806 31.9752L20.9147 30.8111L21.0449 31.6748C21.2122 32.9516 21.175 35.7679 20.9705 37.27C20.4685 40.8562 18.0887 43.0905 14.24 43.5787C11.228 43.973 8.40197 43.0154 6.13368 40.8186C5.44576 40.1615 4.8322 39.617 4.73924 39.617C4.60909 39.617 2.26644 40.9501 1.46696 41.4758C1.13229 41.6823 1.6157 42.4334 3.1031 43.9918C5.53872 46.564 8.21604 47.7657 11.9531 47.991C17.847 48.3477 22.4021 46.0008 24.4101 41.5884C25.7488 38.6594 25.693 39.4856 25.7674 22.8502L25.8232 7.88586H23.4805H21.1564V9.68834V11.4908L20.0223 10.4394C18.7766 9.27527 16.4525 8.03607 14.8722 7.71688C13.5149 7.43524 10.5029 7.49157 9.16426 7.81076ZM15.5415 12.2231C19.2414 13.4998 21.3424 16.7105 21.3424 21.0477C21.3238 25.1784 19.6319 28.1637 16.3782 29.7972C14.9837 30.4919 14.8908 30.5107 12.9014 30.5107C10.9677 30.5107 10.7632 30.4732 9.5733 29.9099C6.30101 28.3327 4.55332 25.2159 4.55332 20.9351C4.55332 17.9685 5.52013 15.6966 7.60249 13.819C9.85219 11.7725 12.6411 11.2092 15.5415 12.2231Z" fill="#232222"/>
<path d="M174.08 8.01725C174.136 8.205 176.218 13.9316 178.672 20.7473C181.127 27.5629 183.246 33.4209 183.395 33.7401C183.618 34.3222 183.692 34.3597 184.566 34.3597H185.477L182.893 40.8749C181.48 44.4611 180.309 47.4652 180.309 47.5403C180.309 47.6342 181.387 47.6906 182.688 47.6906H185.087L187.653 40.8749C189.066 37.1385 192.394 28.3327 195.052 21.3105C197.711 14.2884 199.924 8.35521 199.979 8.11113C200.054 7.69806 200.054 7.69806 197.674 7.69806H195.276L191.315 18.6444C189.121 24.6526 187.244 29.816 187.132 30.0976C186.909 30.6233 186.872 30.5482 186.091 28.3139C185.384 26.3237 179.081 8.93726 178.728 8.01725C178.617 7.73561 178.319 7.69806 176.274 7.69806C174.136 7.69806 173.95 7.71683 174.08 8.01725Z" fill="#232222"/>
<path d="M35.2866 39.7109C35.2866 40.1052 35.3796 40.1803 35.8444 40.1803C36.365 40.1803 36.4022 40.2178 36.4022 40.8938V41.626L35.3982 41.5322C33.1485 41.3444 31.7727 42.7526 31.9958 45.062C32.1073 46.4139 32.5164 47.2025 33.2415 47.5029C34.1339 47.8784 35.4354 47.7845 36.0489 47.3339C36.5881 46.9396 36.5881 46.9396 36.5881 47.3151C36.5881 47.6343 36.6997 47.6906 37.4248 47.6906C38.1871 47.6906 38.2615 47.6531 38.2615 47.2212C38.2615 46.8833 38.1685 46.7518 37.8896 46.7518C37.5363 46.7518 37.5178 46.6204 37.5178 42.9967V39.2415H36.4022C35.3424 39.2415 35.2866 39.2603 35.2866 39.7109ZM35.9374 42.6212C36.4394 42.8089 36.4394 42.8465 36.3836 44.2922C36.3092 45.569 36.2349 45.8506 35.8444 46.2824C35.4726 46.6767 35.2495 46.7518 34.6545 46.7143C33.6691 46.6392 33.1671 45.9632 33.1671 44.7053C33.1671 42.9403 34.3942 42.0203 35.9374 42.6212Z" fill="#232222"/>
<path d="M43.2259 39.3729C43.1515 39.4292 43.0957 39.7296 43.0957 40.0113C43.0957 41.0064 44.453 41.2129 44.6947 40.2554C44.769 39.9925 44.7133 39.6733 44.5831 39.5231C44.3414 39.2415 43.449 39.1288 43.2259 39.3729Z" fill="#232222"/>
<path d="M83.0882 39.5043C82.7722 39.8986 82.9767 40.6872 83.4415 40.8374C84.0736 41.0439 84.5942 40.612 84.5199 39.9361C84.4641 39.4104 84.3897 39.3353 83.8877 39.279C83.5344 39.2414 83.2184 39.3353 83.0882 39.5043Z" fill="#232222"/>
<path d="M170.455 39.7109C170.455 40.0864 170.548 40.1803 170.919 40.1803C171.328 40.1803 171.384 40.2554 171.384 40.875V41.5885H170.083C169.079 41.6072 168.67 41.6823 168.279 41.9827C167.517 42.546 167.108 43.4848 167.127 44.6865C167.145 46.8457 167.833 47.7094 169.581 47.7281C170.25 47.7281 170.789 47.6343 171.087 47.4277C171.663 47.0522 171.756 47.0522 171.756 47.409C171.756 47.6155 171.979 47.6906 172.593 47.6906C173.355 47.6906 173.429 47.653 173.429 47.2212C173.429 46.8832 173.336 46.7518 173.076 46.7518C172.593 46.7518 172.5 46.0947 172.5 42.4146V39.2415H171.477C170.51 39.2415 170.455 39.2603 170.455 39.7109ZM171.031 42.6211C171.328 42.7901 171.384 43.0342 171.384 44.2922C171.384 45.4938 171.31 45.8506 170.994 46.2636C170.473 46.9396 169.395 46.9396 168.763 46.2636C168.168 45.6253 168.112 43.8228 168.688 43.1844C169.321 42.4709 170.306 42.2456 171.031 42.6211Z" fill="#232222"/>
<path d="M50.1609 41.87C49.8634 42.1705 49.789 42.1892 49.789 41.9639C49.789 41.7949 49.6217 41.6823 49.3242 41.6823H48.8594V44.6864V47.6906H49.4172H49.9749V45.5501C49.9749 43.5411 50.0121 43.3533 50.4211 42.8652C50.793 42.4145 50.9046 42.3958 51.1648 42.6023C51.4066 42.8088 51.4623 43.2782 51.4623 45.2685V47.6906H52.0201H52.5779V45.5501C52.5779 43.5411 52.6151 43.3533 53.0241 42.8652C53.396 42.4145 53.5075 42.3958 53.7678 42.6023C54.0095 42.8088 54.0653 43.2782 54.0653 45.2685V47.6906H54.6417H55.218L55.1436 44.8554C55.0879 42.3207 55.0507 42.0015 54.7346 41.7574C54.2512 41.4007 53.3216 41.4194 52.801 41.7949C52.4105 42.0766 52.3362 42.0766 52.0387 41.7949C51.5739 41.3819 50.6071 41.4194 50.1609 41.87Z" fill="#232222"/>
<path d="M59.4571 41.8325C58.4717 42.3207 57.9139 43.5411 58.0254 44.9493C58.1928 46.8081 59.141 47.7281 60.8887 47.7281C62.655 47.7281 63.9379 46.9959 63.3801 46.3012C63.1942 46.0947 63.064 46.0947 62.4876 46.3951C61.1118 47.1085 59.4571 46.564 59.234 45.3436L59.141 44.893L61.3907 44.8367L63.6404 44.7803L63.5846 43.9354C63.5288 42.9403 63.0454 42.0579 62.4133 41.7387C61.7625 41.4007 60.2194 41.4383 59.4571 41.8325ZM61.7439 42.6399C62.1344 42.8089 62.6178 43.5036 62.6178 43.8416C62.6178 43.8979 61.8741 43.9354 60.9445 43.9354C59.1968 43.9354 58.9737 43.804 59.5128 43.1469C60.052 42.4709 60.9259 42.2644 61.7439 42.6399Z" fill="#232222"/>
<path d="M68.0656 41.87C67.5636 42.1705 67.452 42.1892 67.452 41.9639C67.452 41.7574 67.2289 41.6823 66.5224 41.6823C65.6486 41.6823 65.5928 41.7198 65.5928 42.1517C65.5928 42.4896 65.6857 42.6211 65.946 42.6211C66.448 42.6211 66.5224 42.959 66.5224 45.4562V47.6906H67.0802H67.638V45.7003C67.638 44.6113 67.7309 43.5599 67.8425 43.3533C68.14 42.7901 69.0882 42.4333 69.7017 42.6586C70.4082 42.9027 70.6128 43.635 70.6128 45.8317V47.6906H71.1891H71.7655L71.6911 45.2872C71.6168 42.715 71.4122 42.039 70.6685 41.7011C69.962 41.3819 68.7349 41.457 68.0656 41.87Z" fill="#232222"/>
<path d="M75.1305 41.795C74.4798 42.1329 74.1265 42.8652 74.2752 43.635C74.4054 44.2546 74.8888 44.5926 76.0973 44.893C77.4174 45.2122 78.0495 45.5689 78.0495 46.0008C78.0495 46.7894 76.3948 47.0147 75.2235 46.3763L74.5355 46.0008L74.2567 46.4138C73.6617 47.2587 75.0004 47.822 77.3616 47.7281C78.3842 47.6718 79.1651 46.8645 79.1651 45.8506C79.1651 44.8742 78.7746 44.555 76.9898 44.0481C75.8928 43.7477 75.5209 43.5599 75.4652 43.2783C75.3164 42.4709 76.7481 42.1705 77.9566 42.7526C78.5329 43.0342 78.6445 43.0342 78.7932 42.8089C79.1093 42.3019 78.9977 42.0391 78.3284 41.7574C77.4918 41.4195 75.8742 41.4195 75.1305 41.795Z" fill="#232222"/>
<path d="M89.2238 41.8325C88.3313 42.3207 87.9037 43.222 87.9037 44.5926C87.9037 46.6955 88.8891 47.7469 90.8041 47.7281C92.7935 47.7094 93.8347 46.3951 93.6116 44.1983C93.4814 42.9966 93.1468 42.377 92.3101 41.8701C91.5478 41.3819 90.0604 41.3819 89.2238 41.8325ZM91.678 42.8089C92.6634 43.5975 92.7749 45.4187 91.9011 46.3012C91.3061 46.902 90.3393 46.902 89.6328 46.3012C89.168 45.8881 89.1122 45.7379 89.1122 44.5926C89.1122 43.4473 89.168 43.2971 89.6328 42.884C90.2649 42.3395 91.0458 42.3019 91.678 42.8089Z" fill="#232222"/>
<path d="M97.5904 41.9827C97.0326 42.4521 97.014 42.4521 97.014 42.0766C97.014 41.7386 96.9025 41.6823 96.1774 41.6823C95.4151 41.6823 95.3407 41.7198 95.3407 42.1517C95.3407 42.4896 95.4337 42.6211 95.7125 42.6211C96.0658 42.6211 96.0844 42.7525 96.0844 45.1558V47.6906H96.6422H97.2V45.7379C97.2 44.0856 97.2557 43.7289 97.5718 43.3158C98.2783 42.4145 99.5426 42.3207 99.9702 43.1656C100.082 43.3721 100.175 44.4611 100.175 45.6064V47.6906H100.751H101.327L101.253 45.0432C101.197 42.4145 101.197 42.3958 100.677 41.9452C99.9145 41.288 98.3899 41.3068 97.5904 41.9827Z" fill="#232222"/>
<path d="M121.203 41.8325C120.311 42.3207 119.883 43.222 119.883 44.5926C119.883 46.6767 120.868 47.7469 122.765 47.7282C124.085 47.7094 124.847 47.2963 125.293 46.32C126.018 44.6865 125.609 42.7526 124.364 41.9264C123.564 41.3819 122.114 41.3444 121.203 41.8325ZM123.657 42.8089C124.643 43.5975 124.754 45.4187 123.88 46.3012C123.397 46.7894 122.542 46.902 121.91 46.5641C120.868 45.982 120.682 43.6913 121.631 42.8652C122.244 42.3395 123.025 42.3207 123.657 42.8089Z" fill="#232222"/>
<path d="M146.284 41.626C146.135 41.6823 145.856 41.8513 145.689 42.0203C145.392 42.2643 145.354 42.2643 145.243 41.9827C145.169 41.7762 144.89 41.6823 144.313 41.6823C143.57 41.6823 143.495 41.7198 143.495 42.1517C143.495 42.4896 143.588 42.6211 143.848 42.6211C144.295 42.6211 144.425 43.2782 144.425 45.7379V47.6906H144.89C145.354 47.6906 145.354 47.6906 145.354 45.8505C145.354 44.386 145.429 43.9166 145.708 43.4472C146.098 42.7901 146.935 42.4145 147.493 42.6211C148.255 42.9027 148.404 43.3158 148.478 45.5501C148.552 47.653 148.571 47.6906 148.999 47.6906H149.445V45.137V42.5835L148.906 42.039C148.441 41.5884 148.218 41.4945 147.455 41.5133C146.972 41.5133 146.433 41.5696 146.284 41.626Z" fill="#232222"/>
<path d="M153.368 41.8325C152.42 42.3019 152.029 42.9591 151.918 44.2734C151.732 46.4138 152.791 47.7094 154.725 47.7281C156.51 47.7469 157.663 47.1461 157.254 46.3951L157.049 46.0008L156.324 46.3763C154.985 47.071 153.572 46.7143 153.182 45.6065C153.07 45.2685 152.977 44.9681 152.977 44.9493C152.977 44.9118 153.981 44.8742 155.208 44.8742H157.44V44.0293C157.44 42.3583 156.566 41.4946 154.892 41.4946C154.409 41.4946 153.721 41.6448 153.368 41.8325ZM155.803 42.8089C156.064 43.0154 156.324 43.3534 156.38 43.5599C156.473 43.9167 156.398 43.9354 154.818 43.9354C153.107 43.9354 152.977 43.8603 153.368 43.1656C153.758 42.4146 155.078 42.2081 155.803 42.8089Z" fill="#232222"/>
<path d="M160.972 41.8325C159.987 42.3207 159.429 43.5411 159.541 44.9493C159.708 46.8081 160.656 47.7281 162.404 47.7281C164.17 47.7281 165.453 46.9959 164.895 46.3012C164.709 46.0947 164.579 46.0947 164.003 46.3951C162.627 47.1085 160.972 46.564 160.749 45.3436L160.656 44.893L162.906 44.8367L165.156 44.7803L165.1 43.9354C165.044 42.9403 164.561 42.0579 163.928 41.7387C163.278 41.4007 161.734 41.4383 160.972 41.8325ZM163.259 42.6399C163.65 42.8089 164.133 43.5036 164.133 43.8416C164.133 43.8979 163.389 43.9354 162.46 43.9354C160.712 43.9354 160.489 43.804 161.028 43.1469C161.567 42.4709 162.441 42.2644 163.259 42.6399Z" fill="#232222"/>
<path d="M41.4225 42.1517C41.4225 42.5835 41.4783 42.6211 42.3521 42.6211H43.2817V44.6864V46.7518H42.3521C41.4783 46.7518 41.4225 46.7893 41.4225 47.2212V47.6906H43.9325H46.4425V47.2212C46.4425 46.7705 46.3867 46.7518 45.4199 46.7518H44.3973V44.217V41.6823H42.9099C41.4411 41.6823 41.4225 41.6823 41.4225 42.1517Z" fill="#232222"/>
<path d="M81.2103 42.1517C81.2103 42.6023 81.2661 42.6211 82.2329 42.6211H83.2555V44.6864V46.7518H82.2329C81.2661 46.7518 81.2103 46.7705 81.2103 47.2212V47.6906H83.7203H86.2303V47.2212C86.2303 46.7893 86.1745 46.7518 85.3007 46.7518H84.3711V44.217V41.6823H82.7907C81.2289 41.6823 81.2103 41.6823 81.2103 42.1517Z" fill="#232222"/>
<path d="M111.888 41.8137C111.888 41.8888 112.409 43.2032 113.041 44.7615C113.822 46.6579 114.305 47.5779 114.528 47.653C114.714 47.6906 114.863 47.8596 114.863 47.991C114.863 48.3477 114.138 49.0612 113.877 48.9486C112.929 48.5918 112.836 48.6106 112.706 49.0988C112.539 49.7747 112.836 50 113.84 50C114.677 50 115.253 49.6808 115.625 48.9486C115.811 48.6106 117.838 42.0766 117.838 41.8137C117.838 41.7386 117.596 41.6823 117.298 41.6823C116.722 41.6823 116.648 41.8325 115.681 45.3811C115.495 46.0383 115.29 46.564 115.216 46.564C115.086 46.564 113.189 42.1517 113.189 41.8513C113.189 41.7574 112.892 41.6823 112.539 41.6823C112.185 41.6823 111.888 41.7386 111.888 41.8137Z" fill="#232222"/>
<path d="M127.32 42.1517C127.32 42.4897 127.413 42.6211 127.692 42.6211C128.026 42.6211 128.064 42.7526 128.064 44.1607C128.064 46.9583 128.51 47.7281 130.127 47.7281C130.797 47.7281 131.224 47.6155 131.615 47.3339C132.154 46.9396 132.154 46.9396 132.154 47.3151C132.154 47.6343 132.265 47.6906 133.084 47.6906C133.957 47.6906 134.013 47.653 134.013 47.2212C134.013 46.8457 133.92 46.7518 133.548 46.7518H133.084V44.2171V41.6823H132.154C131.28 41.6823 131.224 41.7199 131.224 42.1517C131.224 42.4897 131.317 42.6211 131.596 42.6211C131.931 42.6211 131.968 42.7526 131.968 44.1044C131.968 45.4375 131.912 45.6628 131.485 46.1885C131.076 46.6767 130.871 46.7706 130.313 46.7143C129.365 46.6392 129.179 46.151 129.179 43.6913V41.6823H128.249C127.376 41.6823 127.32 41.7199 127.32 42.1517Z" fill="#232222"/>
</svg>
