<svg width="148" height="37" viewBox="0 0 148 37" fill="none" xmlns="http://www.w3.org/2000/svg">
<path d="M66.9201 5.9328C66.9476 6.07174 67.7181 10.3372 68.6262 15.4225C69.5342 20.5077 70.3185 24.8288 70.3597 25.0372L70.4423 25.4262H71.9007H73.3728L75.0239 20.077C75.9319 17.1453 76.7162 14.8111 76.7574 14.9084C76.8125 15.0057 77.2665 16.4229 77.7756 18.0624C78.2709 19.7019 79.0001 22.0361 79.3715 23.2449L80.0595 25.4401L81.5316 25.3984L83.0038 25.3568L84.7511 15.6309C85.7142 10.2817 86.4984 5.86333 86.5122 5.79386C86.5122 5.73828 85.8105 5.6966 84.9575 5.6966H83.4165L82.3296 11.9767C81.738 15.4364 81.2152 18.4514 81.1601 18.6598C81.0913 18.9794 80.7611 18.104 79.4541 14.047L77.8306 9.03119H76.7024H75.5742L73.992 13.908C73.1252 16.5896 72.3822 18.7987 72.341 18.8265C72.2997 18.8543 71.7906 16.0477 71.199 12.602C70.6074 9.14234 70.0846 6.1829 70.0433 6.00227C69.9745 5.7105 69.9195 5.6966 68.4198 5.6966C67.0027 5.6966 66.8651 5.72439 66.9201 5.9328Z" fill="#1D56A7"/>
<path d="M88.7134 7.14175V8.60063L91.7128 12.0325C93.35 13.9082 94.7121 15.4921 94.7259 15.5477C94.7534 15.5894 93.4051 17.1872 91.7403 19.1046L88.7134 22.5642V23.9953V25.4264H97.3813H106.049V24.037V22.6476L99.3212 22.6198L92.6071 22.5781L95.6064 19.1185C97.2712 17.215 98.6195 15.631 98.6195 15.5755C98.6195 15.5338 97.285 13.9638 95.6477 12.0881L92.6759 8.684L99.3625 8.64231L106.049 8.61453V7.15564V5.69676H97.3813H88.7134V7.14175Z" fill="#1D56A7"/>
<path d="M114.235 0.166713C114.208 0.263971 114.153 1.25045 114.111 2.36198C114.056 3.47351 113.987 4.6684 113.932 5.02965L113.85 5.69657H110.988H108.113V7.15545V8.61433H110.919H113.74L113.781 14.1998C113.836 18.9515 113.877 19.9241 114.07 20.6327C115.061 24.1201 117.4 25.843 121.183 25.843C123.728 25.843 125.517 25.1066 127.278 23.3421C127.856 22.7446 128.338 22.175 128.324 22.0777C128.324 21.8832 126.384 20.2854 126.177 20.2854C126.109 20.2854 125.6 20.6605 125.036 21.119C123.591 22.2861 122.765 22.6752 121.541 22.7585C119.725 22.8697 118.266 22.0638 117.592 20.5355C117.262 19.7991 117.262 19.7574 117.221 14.1998L117.179 8.61433H121.789H126.411V7.15545V5.69657H121.733H117.056V2.84827V-1.66036e-05H115.68C114.689 -1.66036e-05 114.276 0.0555598 114.235 0.166713Z" fill="#232222"/>
<path d="M38.4259 5.61321C37.1877 5.86331 36.3897 6.15508 35.6054 6.66917C34.8762 7.14157 33.7343 8.30867 33.2115 9.10063L32.8537 9.6564V7.73901V5.83552H28.2446H23.6356V7.22493V8.61434H26.6624H29.6893V15.6309V22.6474H26.6624H23.6356V24.0368V25.4262H32.3722H41.1088V24.0368V22.6474H37.0226H32.95L33.0326 19.1322C33.1289 15.0473 33.3353 13.6023 34.0232 12.1295C34.6561 10.7818 35.4128 9.97596 36.6786 9.35073C37.5866 8.89222 37.8343 8.82275 39.0175 8.78107C39.9531 8.73939 40.6548 8.79496 41.5078 8.97559C42.1545 9.11453 42.7461 9.23958 42.8149 9.23958C42.9249 9.23958 43.5578 6.65527 43.5853 6.15508C43.5853 6.07172 43.1588 5.90499 42.636 5.77994C41.2464 5.46038 39.5541 5.39091 38.4259 5.61321Z" fill="#232222"/>
<path d="M52.9138 5.55766C50.8913 5.91891 49.4053 6.73866 47.8506 8.32259C46.9151 9.26739 46.5573 9.76757 46.1033 10.6985C45.209 12.5464 45.0302 13.3523 45.0302 15.7698C45.0439 17.7567 45.0577 17.9095 45.4842 19.1739C46.4335 21.9388 47.9882 23.8145 50.2584 24.9399C51.7718 25.7041 52.7349 25.8847 54.6611 25.8014C57.2339 25.7041 58.8849 25.0094 60.6185 23.3004L61.4715 22.4529V23.9396V25.4262H62.985H64.4984V15.6309V5.83554H62.8474H61.1964V7.16938V8.5171L60.5772 7.93355C58.94 6.41909 56.9587 5.57155 54.7987 5.48819C54.1245 5.4604 53.2715 5.48819 52.9138 5.55766ZM56.6973 9.04508C57.7843 9.40633 58.6648 9.97598 59.4353 10.8096C60.6873 12.1574 61.1964 13.5051 61.1964 15.4086C61.1826 19.8964 58.3071 22.828 54.1107 22.6196C50.6849 22.439 48.1533 19.1322 48.4423 15.2419C48.7449 11.3515 51.2352 8.78109 54.7711 8.7672C55.5003 8.7533 56.1057 8.85056 56.6973 9.04508Z" fill="#232222"/>
<path d="M6.78156 5.77997C4.42886 6.36352 2.18623 8.18365 1.11306 10.4206C0.79662 11.0736 0.4389 11.9767 0.315074 12.4352C-0.0151297 13.6718 -0.111439 16.7563 0.149972 18.0207C0.727828 20.7439 2.19998 23.0087 4.29127 24.4259C5.74967 25.4123 6.72652 25.718 8.63895 25.8014C11.3081 25.9125 13.0004 25.3151 14.6376 23.6617L15.4769 22.8002L15.5732 23.4394C15.697 24.3842 15.6695 26.4683 15.5182 27.5798C15.1467 30.2336 13.3856 31.887 10.5376 32.2482C8.30875 32.54 6.21746 31.8314 4.53892 30.2058C4.02986 29.7195 3.57583 29.3166 3.50704 29.3166C3.41073 29.3166 1.67716 30.3031 1.08555 30.6921C0.837896 30.8449 1.19562 31.4007 2.29629 32.5539C4.09865 34.4574 6.07987 35.3466 8.84533 35.5134C13.2068 35.7773 16.5776 34.0406 18.0635 30.7755C19.0541 28.608 19.0128 29.2193 19.0679 16.9091L19.1091 5.83555H17.3756H15.6558V7.16938V8.50321L14.8165 7.72514C13.8947 6.86371 12.1749 5.9467 11.0054 5.7105C10.001 5.50209 7.77216 5.54377 6.78156 5.77997ZM11.5007 9.04508C14.2386 9.98988 15.7934 12.3658 15.7934 15.5753C15.7796 18.632 14.5276 20.8412 12.1198 22.05C11.088 22.564 11.0192 22.5779 9.54701 22.5779C8.11613 22.5779 7.96478 22.5502 7.08424 22.1333C4.66275 20.9662 3.36945 18.6598 3.36945 15.4919C3.36945 13.2967 4.08489 11.6155 5.62584 10.2261C7.29062 8.71162 9.35439 8.2948 11.5007 9.04508Z" fill="#232222"/>
<path d="M128.819 5.93277C128.861 6.07171 130.401 10.3094 132.218 15.353C134.034 20.3965 135.602 24.7315 135.712 24.9677C135.877 25.3984 135.932 25.4262 136.579 25.4262H137.253L135.341 30.2475C134.295 32.9012 133.428 35.1243 133.428 35.1799C133.428 35.2493 134.226 35.291 135.189 35.291H136.964L138.863 30.2475C139.909 27.4825 142.371 20.9662 144.339 15.7698C146.306 10.5734 147.944 6.18286 147.985 6.00224C148.04 5.69657 148.04 5.69657 146.279 5.69657H144.504L141.573 13.7968C139.95 18.2429 138.56 22.0638 138.478 22.2722C138.313 22.6613 138.285 22.6057 137.707 20.9523C137.184 19.4795 132.52 6.61358 132.259 5.93277C132.176 5.72436 131.956 5.69657 130.443 5.69657C128.861 5.69657 128.723 5.71047 128.819 5.93277Z" fill="#232222"/>
<path d="M26.1121 29.386C26.1121 29.6778 26.1809 29.7334 26.5249 29.7334C26.9101 29.7334 26.9376 29.7612 26.9376 30.2614V30.8032L26.1947 30.7338C24.5299 30.5948 23.5118 31.6369 23.6769 33.3459C23.7594 34.3462 24.0621 34.9298 24.5987 35.1521C25.2591 35.43 26.2222 35.3605 26.6762 35.027C27.0752 34.7353 27.0752 34.7353 27.0752 35.0132C27.0752 35.2494 27.1578 35.291 27.6944 35.291C28.2585 35.291 28.3135 35.2632 28.3135 34.9437C28.3135 34.6936 28.2447 34.5963 28.0383 34.5963C27.7769 34.5963 27.7632 34.4991 27.7632 31.8175V29.0387H26.9376C26.1534 29.0387 26.1121 29.0526 26.1121 29.386ZM26.5937 31.5396C26.9652 31.6786 26.9652 31.7064 26.9239 32.7762C26.8689 33.721 26.8138 33.9294 26.5249 34.249C26.2497 34.5408 26.0846 34.5963 25.6443 34.5685C24.9152 34.513 24.5437 34.0128 24.5437 33.0819C24.5437 31.7758 25.4517 31.095 26.5937 31.5396Z" fill="#232222"/>
<path d="M31.9871 29.1359C31.9321 29.1776 31.8908 29.3999 31.8908 29.6083C31.8908 30.3447 32.8952 30.4976 33.074 29.789C33.1291 29.5944 33.0878 29.3582 32.9915 29.2471C32.8126 29.0387 32.1522 28.9553 31.9871 29.1359Z" fill="#232222"/>
<path d="M61.4853 29.2332C61.2514 29.525 61.4028 30.1085 61.7467 30.2197C62.2145 30.3725 62.5997 30.053 62.5447 29.5528C62.5034 29.1637 62.4484 29.1082 62.0769 29.0665C61.8155 29.0387 61.5816 29.1082 61.4853 29.2332Z" fill="#232222"/>
<path d="M126.136 29.3861C126.136 29.6639 126.205 29.7334 126.48 29.7334C126.783 29.7334 126.824 29.789 126.824 30.2475V30.7755H125.861C125.118 30.7894 124.816 30.8449 124.527 31.0673C123.963 31.4841 123.66 32.1788 123.674 33.068C123.687 34.6658 124.196 35.305 125.49 35.3188C125.985 35.3188 126.384 35.2494 126.604 35.0965C127.031 34.8187 127.1 34.8187 127.1 35.0826C127.1 35.2355 127.265 35.2911 127.719 35.2911C128.283 35.2911 128.338 35.2633 128.338 34.9437C128.338 34.6936 128.269 34.5964 128.076 34.5964C127.719 34.5964 127.65 34.1101 127.65 31.3868V29.0387H126.893C126.178 29.0387 126.136 29.0526 126.136 29.3861ZM126.563 31.5397C126.783 31.6647 126.824 31.8453 126.824 32.7762C126.824 33.6654 126.769 33.9294 126.535 34.2351C126.15 34.7353 125.352 34.7353 124.884 34.2351C124.444 33.7627 124.403 32.4289 124.829 31.9565C125.297 31.4285 126.026 31.2618 126.563 31.5397Z" fill="#232222"/>
<path d="M37.119 30.9838C36.8989 31.2061 36.8439 31.22 36.8439 31.0533C36.8439 30.9283 36.72 30.8449 36.4999 30.8449H36.1559V33.068V35.291H36.5687H36.9815V33.7071C36.9815 32.2204 37.009 32.0815 37.3117 31.7202C37.5868 31.3868 37.6694 31.3729 37.862 31.5257C38.0409 31.6785 38.0821 32.0259 38.0821 33.4987V35.291H38.4949H38.9076V33.7071C38.9076 32.2204 38.9352 32.0815 39.2378 31.7202C39.513 31.3868 39.5956 31.3729 39.7882 31.5257C39.967 31.6785 40.0083 32.0259 40.0083 33.4987V35.291H40.4348H40.8613L40.8063 33.193C40.765 31.3173 40.7375 31.0811 40.5036 30.9005C40.1459 30.6365 39.458 30.6504 39.0727 30.9283C38.7838 31.1367 38.7288 31.1367 38.5086 30.9283C38.1647 30.6226 37.4492 30.6504 37.119 30.9838Z" fill="#232222"/>
<path d="M43.9981 30.9561C43.2689 31.3173 42.8562 32.2205 42.9387 33.2625C43.0625 34.638 43.7642 35.3188 45.0575 35.3188C46.3646 35.3188 47.3139 34.777 46.9011 34.2629C46.7636 34.1101 46.6673 34.1101 46.2407 34.3324C45.2226 34.8603 43.9981 34.4574 43.833 33.5543L43.7642 33.2208L45.429 33.1792L47.0938 33.1375L47.0525 32.5122C47.0112 31.7759 46.6535 31.1228 46.1857 30.8866C45.7042 30.6365 44.5622 30.6643 43.9981 30.9561ZM45.6904 31.5535C45.9793 31.6786 46.3371 32.1927 46.3371 32.4428C46.3371 32.4845 45.7867 32.5122 45.0988 32.5122C43.8055 32.5122 43.6404 32.415 44.0394 31.9287C44.4384 31.4285 45.085 31.2757 45.6904 31.5535Z" fill="#232222"/>
<path d="M50.3685 30.9838C49.997 31.2061 49.9145 31.22 49.9145 31.0533C49.9145 30.9005 49.7494 30.8449 49.2266 30.8449C48.5799 30.8449 48.5386 30.8727 48.5386 31.1923C48.5386 31.4423 48.6074 31.5396 48.8 31.5396C49.1715 31.5396 49.2266 31.7897 49.2266 33.6376V35.291H49.6393H50.0521V33.8182C50.0521 33.0124 50.1209 32.2343 50.2034 32.0815C50.4235 31.6647 51.1252 31.4007 51.5793 31.5674C52.1021 31.748 52.2534 32.2899 52.2534 33.9155V35.291H52.6799H53.1064L53.0514 33.5126C52.9964 31.6091 52.845 31.1089 52.2947 30.8588C51.7719 30.6226 50.8638 30.6782 50.3685 30.9838Z" fill="#232222"/>
<path d="M55.5965 30.9283C55.1149 31.1784 54.8535 31.7202 54.9636 32.2899C55.0599 32.7484 55.4176 32.9985 56.3119 33.2208C57.2888 33.457 57.7566 33.721 57.7566 34.0405C57.7566 34.6241 56.5321 34.7908 55.6653 34.3184L55.1562 34.0405L54.9498 34.3462C54.5096 34.9715 55.5002 35.3883 57.2475 35.3188C58.0042 35.2771 58.5821 34.6797 58.5821 33.9294C58.5821 33.2069 58.2932 32.9707 56.9723 32.5956C56.1606 32.3733 55.8854 32.2343 55.8441 32.0259C55.7341 31.4285 56.7935 31.2062 57.6878 31.6369C58.1143 31.8453 58.1968 31.8453 58.3069 31.6786C58.5408 31.3034 58.4583 31.1089 57.9629 30.9005C57.3438 30.6504 56.1468 30.6504 55.5965 30.9283Z" fill="#232222"/>
<path d="M66.0257 30.9561C65.3653 31.3173 65.0488 31.9843 65.0488 32.9985C65.0488 34.5547 65.778 35.3327 67.1951 35.3188C68.6673 35.305 69.4378 34.3324 69.2727 32.7068C69.1764 31.8175 68.9287 31.359 68.3096 30.9839C67.7455 30.6226 66.6448 30.6226 66.0257 30.9561ZM67.8418 31.6786C68.571 32.2621 68.6535 33.6099 68.0069 34.2629C67.5666 34.7075 66.8512 34.7075 66.3284 34.2629C65.9844 33.9572 65.9431 33.8461 65.9431 32.9985C65.9431 32.151 65.9844 32.0398 66.3284 31.7342C66.7962 31.3312 67.374 31.3035 67.8418 31.6786Z" fill="#232222"/>
<path d="M72.217 31.0672C71.8042 31.4146 71.7904 31.4146 71.7904 31.1367C71.7904 30.8866 71.7079 30.8449 71.1713 30.8449C70.6072 30.8449 70.5522 30.8727 70.5522 31.1923C70.5522 31.4423 70.621 31.5396 70.8274 31.5396C71.0888 31.5396 71.1025 31.6369 71.1025 33.4153V35.291H71.5153H71.928V33.846C71.928 32.6233 71.9693 32.3594 72.2032 32.0537C72.726 31.3868 73.6616 31.3173 73.978 31.9425C74.0606 32.0954 74.1294 32.9012 74.1294 33.7488V35.291H74.5559H74.9824L74.9274 33.3319C74.8861 31.3868 74.8861 31.3729 74.5009 31.0394C73.9368 30.5531 72.8086 30.567 72.217 31.0672Z" fill="#232222"/>
<path d="M89.6901 30.9561C89.0297 31.3173 88.7133 31.9843 88.7133 32.9985C88.7133 34.5408 89.4425 35.3327 90.8458 35.3189C91.8227 35.305 92.3868 34.9993 92.717 34.2768C93.2536 33.068 92.9509 31.6369 92.029 31.0256C91.4374 30.6226 90.3643 30.5949 89.6901 30.9561ZM91.5062 31.6786C92.2354 32.2621 92.318 33.6099 91.6713 34.2629C91.3136 34.6241 90.6807 34.7075 90.2129 34.4574C89.4425 34.0267 89.3049 32.3316 90.0066 31.7203C90.4606 31.3312 91.0384 31.3173 91.5062 31.6786Z" fill="#232222"/>
<path d="M108.25 30.8032C108.14 30.8449 107.934 30.9699 107.81 31.095C107.59 31.2756 107.562 31.2756 107.48 31.0672C107.425 30.9144 107.218 30.8449 106.792 30.8449C106.241 30.8449 106.186 30.8727 106.186 31.1923C106.186 31.4423 106.255 31.5396 106.448 31.5396C106.778 31.5396 106.874 32.0259 106.874 33.846V35.291H107.218C107.562 35.291 107.562 35.291 107.562 33.9294C107.562 32.8457 107.617 32.4983 107.824 32.1509C108.113 31.6647 108.732 31.3868 109.144 31.5396C109.709 31.748 109.819 32.0537 109.874 33.7071C109.929 35.2632 109.942 35.291 110.259 35.291H110.589V33.4014V31.5118L110.19 31.1089C109.846 30.7754 109.681 30.706 109.117 30.7199C108.759 30.7199 108.36 30.7615 108.25 30.8032Z" fill="#232222"/>
<path d="M113.492 30.9561C112.79 31.3034 112.501 31.7897 112.419 32.7623C112.281 34.3462 113.066 35.3049 114.496 35.3188C115.817 35.3327 116.67 34.8881 116.368 34.3324L116.216 34.0406L115.68 34.3185C114.689 34.8325 113.643 34.5686 113.354 33.7488C113.272 33.4987 113.203 33.2764 113.203 33.2625C113.203 33.2347 113.946 33.2069 114.854 33.2069H116.505V32.5817C116.505 31.3451 115.859 30.706 114.62 30.706C114.263 30.706 113.753 30.8171 113.492 30.9561ZM115.294 31.6786C115.487 31.8314 115.68 32.0815 115.721 32.2343C115.79 32.4983 115.735 32.5122 114.565 32.5122C113.299 32.5122 113.203 32.4566 113.492 31.9426C113.781 31.3868 114.758 31.234 115.294 31.6786Z" fill="#232222"/>
<path d="M119.119 30.9561C118.39 31.3173 117.977 32.2205 118.06 33.2625C118.184 34.638 118.885 35.3188 120.179 35.3188C121.486 35.3188 122.435 34.777 122.022 34.2629C121.885 34.1101 121.788 34.1101 121.362 34.3324C120.344 34.8603 119.119 34.4574 118.954 33.5543L118.885 33.2208L120.55 33.1792L122.215 33.1375L122.174 32.5122C122.132 31.7759 121.775 31.1228 121.307 30.8866C120.825 30.6365 119.683 30.6643 119.119 30.9561ZM120.812 31.5535C121.101 31.6786 121.458 32.1927 121.458 32.4428C121.458 32.4845 120.908 32.5122 120.22 32.5122C118.927 32.5122 118.762 32.415 119.161 31.9287C119.56 31.4285 120.206 31.2757 120.812 31.5535Z" fill="#232222"/>
<path d="M30.6525 31.1923C30.6525 31.5118 30.6938 31.5396 31.3405 31.5396H32.0284V33.068V34.5963H31.3405C30.6938 34.5963 30.6525 34.6241 30.6525 34.9437V35.291H32.5099H34.3673V34.9437C34.3673 34.6102 34.326 34.5963 33.6106 34.5963H32.8539V32.7206V30.8449H31.7532C30.6663 30.8449 30.6525 30.8449 30.6525 31.1923Z" fill="#232222"/>
<path d="M60.0957 31.1923C60.0957 31.5257 60.137 31.5396 60.8524 31.5396H61.6091V33.068V34.5963H60.8524C60.137 34.5963 60.0957 34.6102 60.0957 34.9437V35.291H61.9531H63.8105V34.9437C63.8105 34.6241 63.7692 34.5963 63.1226 34.5963H62.4346V32.7206V30.8449H61.2652C60.1095 30.8449 60.0957 30.8449 60.0957 31.1923Z" fill="#232222"/>
<path d="M82.7971 30.9422C82.7971 30.9977 83.1823 31.9703 83.6501 33.1235C84.2279 34.5268 84.5857 35.2077 84.7508 35.2632C84.8883 35.291 84.9984 35.4161 84.9984 35.5133C84.9984 35.7773 84.4618 36.3053 84.2692 36.2219C83.5675 35.9579 83.4987 35.9718 83.4024 36.3331C83.2786 36.8333 83.4987 37 84.2417 37C84.8608 37 85.2873 36.7638 85.5625 36.2219C85.7001 35.9718 87.1998 31.1367 87.1998 30.9422C87.1998 30.8866 87.0209 30.8449 86.8008 30.8449C86.3743 30.8449 86.3192 30.9561 85.6038 33.5821C85.4662 34.0683 85.3149 34.4574 85.2598 34.4574C85.1635 34.4574 83.7602 31.1923 83.7602 30.97C83.7602 30.9005 83.54 30.8449 83.2786 30.8449C83.0172 30.8449 82.7971 30.8866 82.7971 30.9422Z" fill="#232222"/>
<path d="M94.2167 31.1923C94.2167 31.4424 94.2855 31.5397 94.4918 31.5397C94.7395 31.5397 94.767 31.6369 94.767 32.679C94.767 34.7492 95.0972 35.3188 96.2942 35.3188C96.7895 35.3188 97.106 35.2355 97.3949 35.0271C97.7939 34.7353 97.7939 34.7353 97.7939 35.0132C97.7939 35.2494 97.8764 35.2911 98.4818 35.2911C99.1284 35.2911 99.1697 35.2633 99.1697 34.9437C99.1697 34.6658 99.1009 34.5964 98.8258 34.5964H98.4818V32.7206V30.8449H97.7939C97.1472 30.8449 97.106 30.8727 97.106 31.1923C97.106 31.4424 97.1747 31.5397 97.3811 31.5397C97.6288 31.5397 97.6563 31.6369 97.6563 32.6373C97.6563 33.6238 97.615 33.7905 97.2986 34.1795C96.9959 34.5408 96.8445 34.6102 96.4318 34.5686C95.7301 34.513 95.5925 34.1517 95.5925 32.3316V30.8449H94.9046C94.258 30.8449 94.2167 30.8727 94.2167 31.1923Z" fill="#232222"/>
</svg>
